<svg version="1.1" viewBox="0.0 0.0 321.74015748031496 324.50918635170603" fill="none" stroke="none" stroke-linecap="square" stroke-miterlimit="10" xmlns:xlink="http://www.w3.org/1999/xlink" xmlns="http://www.w3.org/2000/svg"><clipPath id="p.0"><path d="m0 0l321.74014 0l0 324.5092l-321.74014 0l0 -324.5092z" clip-rule="nonzero"/></clipPath><g clip-path="url(#p.0)"><path fill="#000000" fill-opacity="0.0" d="m0 0l321.74014 0l0 324.5092l-321.74014 0z" fill-rule="evenodd"/><path fill="#4c1130" d="m47.367363 47.719624l225.73227 0l0 225.73228l-225.73227 0z" fill-rule="evenodd"/><path fill="#b7b7b7" d="m159.93724 8.089239E-4l159.937 159.93701l-159.937 159.937l-159.93701 -159.937z" fill-rule="evenodd"/><path fill="#000000" fill-opacity="0.0" d="m100.16929 63.228348l90.29922 0l0 241.41731l-90.29922 0z" fill-rule="evenodd"/><path fill="#4c1130" d="m156.7318 244.0096q0 4.296875 -1.078125 8.3125q-1.078125 3.9999847 -3.515625 7.0781097q-2.4375 3.0625 -6.453125 4.921875q-4.0 1.859375 -9.953125 1.859375q-5.5625 0 -9.375008 -1.671875q-3.8125 -1.65625 -6.296875 -4.4375q-2.484375 -2.78125 -3.65625 -6.4843597q-1.171875 -3.71875 -1.46875 -7.71875q-0.296875 -0.390625 -0.453125 -0.875q-0.140625 -0.5 -0.140625 -0.984375q0 -1.078125 0.78125 -1.796875q0.78125 -0.734375 1.859375 -0.734375q1.078125 0 1.8125 0.734375q0.734375 0.71875 0.734375 1.796875q0 0.484375 -0.15625 0.984375q-0.140625 0.484375 -0.4375 0.875q0.09375 3.3125 1.0625 6.296875q0.984375 2.984375 2.984375 5.2343597q2.015625 2.234375 5.1406326 3.5625q3.125 1.3125 7.609375 1.3125q4.78125 0 8.046875 -1.515625q3.28125 -1.515625 5.234375 -4.09375q1.953125 -2.5937347 2.828125 -5.8593597q0.890625 -3.28125 0.890625 -6.796875l0 -25.0q0 -5.078125 -2.015625 -9.71875q-2.0 -4.640625 -5.703125 -8.046875l-23.437508 -20.8125q-2.4375 -2.140625 -3.90625 -4.4375q-1.46875 -2.296875 -2.25 -4.53125q-0.78125 -2.25 -1.03125 -4.546875q-0.234375 -2.296875 -0.234375 -4.640625l0 -17.28125q0 -4.203125 1.0625 -8.296875q1.078125 -4.109375 3.515625 -7.328125q2.453125 -3.234375 6.453125 -5.1875q4.0000076 -1.953125 9.968758 -1.953125q5.5625 0 9.421875 1.765625q3.859375 1.75 6.296875 4.6875q2.4375 2.921875 3.65625 6.6875q1.21875 3.765625 1.421875 7.859375q0.296875 0.296875 0.4375 0.78125q0.140625 0.484375 0.140625 0.984375q0 1.0625 -0.734375 1.84375q-0.71875 0.78125 -1.796875 0.78125q-1.078125 0 -1.859375 -0.78125q-0.78125 -0.78125 -0.78125 -1.84375q0 -0.984375 0.59375 -1.5625q-0.203125 -3.234375 -1.140625 -6.296875q-0.921875 -3.078125 -2.921875 -5.515625q-2.0 -2.453125 -5.125 -3.90625q-3.125 -1.46875 -7.609375 -1.46875q-4.796875 0 -8.062508 1.65625q-3.265625 1.65625 -5.21875 4.296875q-1.953125 2.640625 -2.84375 6.015625q-0.875 3.359375 -0.875 6.78125l0 17.28125q0.203125 4.984375 1.515625 8.84375q1.3125 3.84375 4.734375 6.875l23.531258 20.796875q5.28125 4.890625 7.03125 10.0625q1.765625 5.171875 1.765625 10.15625l0 25.0z" fill-rule="nonzero"/><path fill="#000000" fill-opacity="0.0" d="m129.4047 257.54068l90.29921 0l0 -202.07874l-90.29921 0z" fill-rule="evenodd"/><path fill="#4c1130" d="m165.09453 60.540684q-0.875 0.59375 -1.75 0.59375q-1.078125 0 -1.859375 -0.78125q-0.78125 -0.78125 -0.78125 -1.859375q0 -1.078125 0.78125 -1.8125q0.78125 -0.734375 1.859375 -0.734375q0.875 0 1.75 0.59375l37.203125 0l0 117.390625q0 4.296875 -0.96875 8.34375q-0.984375 4.046875 -3.421875 7.21875q-2.4375 3.1875 -6.484375 5.140625q-4.0625 1.953125 -10.109375 1.953125l-16.21875 0q-0.875 0.578125 -1.75 0.578125q-1.078125 0 -1.859375 -0.78125q-0.78125 -0.78125 -0.78125 -1.859375q0 -1.0625 0.78125 -1.84375q0.78125 -0.78125 1.859375 -0.78125q0.78125 0 1.75 0.671875l16.21875 0q4.96875 0 8.25 -1.609375q3.265625 -1.609375 5.21875 -4.25q1.953125 -2.625 2.734375 -6.0q0.78125 -3.375 0.78125 -6.78125l0 -17.390625l-27.4375 0q-0.875 0.59375 -1.765625 0.59375q-1.0625 0 -1.84375 -0.734375q-0.78125 -0.734375 -0.78125 -1.8125q0 -1.078125 0.78125 -1.859375q0.78125 -0.78125 1.84375 -0.78125q0.890625 0 1.765625 0.59375l27.4375 0l0 -92.0l-33.203125 0z" fill-rule="nonzero"/><path fill="#000000" fill-opacity="0.0" d="m25.813648 150.98688l124.44095 -125.51181" fill-rule="evenodd"/><path stroke="#4c1130" stroke-width="2.0" stroke-linejoin="round" stroke-linecap="butt" d="m25.813648 150.98688l124.44095 -125.51181" fill-rule="evenodd"/><path fill="#000000" fill-opacity="0.0" d="m164.02625 299.32285l129.85828 -131.2756" fill-rule="evenodd"/><path stroke="#4c1130" stroke-width="2.0" stroke-linejoin="round" stroke-linecap="butt" d="m164.02625 299.32285l129.85828 -131.2756" fill-rule="evenodd"/></g></svg>